<mxfile host="app.diagrams.net" modified="2023-12-05T02:09:05.490Z" agent="Mozilla/5.0 (Windows NT 10.0; Win64; x64) AppleWebKit/537.36 (KHTML, like Gecko) Chrome/119.0.0.0 Safari/537.36 Edg/119.0.0.0" version="22.1.5" etag="3GMAzS7BKN2FR-VA07PK" type="github">
  <diagram name="Page-1" id="rFlnYu8hVhrAZtipEdLN">
    <mxGraphModel>
      <root>
        <mxCell id="0" />
        <mxCell id="1" parent="0" />
      </root>
    </mxGraphModel>
  </diagram>
</mxfile>
